<svg xmlns="http://www.w3.org/2000/svg" viewBox="0 0 140 140" width="100%" height="100%">
  <defs>
    <path id="emblemTopArc1" d="M 15,76 A 55,55 0 0,1 125,76" fill="none"/>
    <path id="emblemTopArc2" d="M 25,76 A 45,45 0 0,1 115,76" fill="none"/>
    <path id="emblemBottomArc" d="M 16,68 A 54,54 0 0,0 124,68" fill="none"/>
  </defs>

  <!-- Arc Text: Knowledge Alone Liberates -->
  <text font-family="-apple-system, BlinkMacSystemFont, 'Segoe UI', Roboto, 'Helvetica Neue', Arial, sans-serif" font-size="8.5" font-weight="600" fill="#991B1B" letter-spacing="0.8">
    <textPath href="#emblemTopArc1" startOffset="50%" text-anchor="middle">Knowledge Alone Liberates</textPath>
  </text>

  <!-- Arc Text: Devanagari Motto -->
  <text font-family="'Noto Sans Devanagari', 'Mangal', 'Yantramanav', sans-serif" font-size="9.5" font-weight="700" fill="#991B1B" letter-spacing="0.5">
    <textPath href="#emblemTopArc2" startOffset="50%" text-anchor="middle">ज्ञानादेव तु कैवल्यम्</textPath>
  </text>

  <!-- Arc Text: Somaiya Vidyavihar (Bottom) -->
  <text font-family="-apple-system, BlinkMacSystemFont, 'Segoe UI', Roboto, 'Helvetica Neue', Arial, sans-serif" font-size="9.5" font-weight="700" fill="#991B1B" letter-spacing="0.8">
    <textPath href="#emblemBottomArc" startOffset="50%" text-anchor="middle">Somaiya Vidyavihar</textPath>
  </text>

  <!-- Center Flame / Jyoti -->
  <path d="M 70,30 C 70,30 80,44 80,55 C 80,62 75.5,67 70,67 C 64.5,67 60,62 60,55 C 60,47 66,39 66,39 C 66,39 61,45 62,53 C 63,59 66.5,62 70,62 C 73.5,62 76,58.5 75.5,52 C 75,44 70,30 70,30 Z" fill="#991B1B"/>

  <!-- Center Diya (Bowl / Base) -->
  <path d="M 22,66 C 32,90 50,102 70,102 C 90,102 108,90 118,66 C 102,82 84,86 70,86 C 56,86 38,82 22,66 Z" fill="#991B1B"/>
</svg>
